<?xml version="1.0" encoding="UTF-8"?>
<svg xmlns="http://www.w3.org/2000/svg" xmlns:xlink="http://www.w3.org/1999/xlink" width="128px" height="128px" viewBox="0 0 128 128" version="1.1">
<g id="surface1">
<path style=" stroke:none;fill-rule:nonzero;fill:rgb(95.686275%,26.274511%,21.176471%);fill-opacity:1;" d="M 77.398438 32.324219 L 73.050781 28.050781 C 70.726562 30.398438 69.550781 33.523438 69.574219 36.574219 C 69.574219 39.625 70.75 42.75 73.050781 45.101562 L 73.101562 45.148438 L 82.851562 54.898438 L 82.898438 54.949219 C 85.25 57.25 88.375 58.449219 91.425781 58.425781 C 94.476562 58.425781 97.601562 57.25 99.949219 54.949219 L 100 54.898438 L 122.976562 31.925781 L 118.675781 27.625 L 113.125 30.125 C 114.976562 34.226562 115.851562 38.476562 115.851562 42.675781 C 115.851562 54.273438 109.199219 65.375 97.925781 70.449219 C 93.925781 72.25 89.648438 73.148438 85.375 73.148438 C 81.101562 73.148438 76.800781 72.25 72.824219 70.449219 C 70.5 69.398438 67.800781 69.898438 66 71.699219 L 23.851562 113.800781 C 22.5 115.148438 20.773438 115.800781 19.023438 115.800781 C 17.25 115.800781 15.550781 115.148438 14.199219 113.800781 C 12.851562 112.449219 12.199219 110.726562 12.199219 108.976562 C 12.199219 107.199219 12.851562 105.5 14.199219 104.148438 L 56.300781 62.050781 C 58.101562 60.25 58.601562 57.550781 57.550781 55.226562 C 55.699219 51.125 54.824219 46.875 54.824219 42.675781 C 54.824219 31.074219 61.476562 19.976562 72.75 14.898438 C 76.75 13.101562 81.023438 12.199219 85.300781 12.199219 C 89.574219 12.199219 93.875 13.101562 97.851562 14.898438 L 100.351562 9.351562 L 96.050781 5.050781 L 73.148438 27.949219 L 73.050781 28.050781 L 73 28.101562 L 77.398438 32.324219 L 73.050781 28.050781 L 77.398438 32.324219 L 81.800781 36.523438 L 104.648438 13.675781 C 106.050781 12.273438 106.699219 10.25 106.324219 8.273438 C 105.976562 6.300781 104.648438 4.648438 102.851562 3.824219 C 97.300781 1.273438 91.300781 0 85.300781 0 C 79.300781 0 73.300781 1.273438 67.726562 3.800781 C 51.976562 10.925781 42.648438 26.449219 42.648438 42.675781 C 42.648438 48.550781 43.875 54.550781 46.449219 60.25 L 52 57.75 L 47.699219 53.449219 L 5.574219 95.523438 C 1.875 99.226562 0 104.125 0 108.976562 C 0 113.824219 1.875 118.726562 5.574219 122.425781 C 9.273438 126.125 14.175781 128 19.023438 128 C 23.875 128 28.773438 126.125 32.476562 122.425781 L 74.574219 80.324219 L 70.273438 76 L 67.773438 81.550781 C 73.351562 84.074219 79.351562 85.351562 85.351562 85.351562 C 91.351562 85.351562 97.351562 84.074219 102.925781 81.550781 C 118.675781 74.425781 128 58.898438 128 42.675781 C 128 36.800781 126.773438 30.800781 124.199219 25.125 C 123.375 23.300781 121.699219 22 119.75 21.648438 C 117.773438 21.300781 115.75 21.925781 114.351562 23.324219 L 91.375 46.300781 L 95.675781 50.601562 L 91.425781 46.25 L 87.148438 50.601562 L 91.449219 46.300781 L 81.699219 36.550781 L 81.75 36.601562 L 81.824219 36.523438 Z M 77.398438 32.324219 "/>
</g>
</svg>
